<svg width="180" height="181" viewBox="0 0 180 181" fill="none" xmlns="http://www.w3.org/2000/svg">
<circle opacity="0.1" cx="69.2767" cy="30.434" r="30.1517" fill="#9965E2"/>
<path d="M128.996 48.1587C115.851 36.6723 98.058 48.1587 80.771 72.3303C63.4841 96.5019 55.2641 86.3293 40.5687 96.9829C25.8734 107.637 21.9429 151.278 73.7177 147.035C125.493 142.792 163.358 78.1453 128.996 48.1587Z" fill="#F5F0FC"/>
<path d="M144.96 163.65C144.96 163.701 120.035 163.744 89.298 163.744C58.5612 163.744 33.625 163.701 33.625 163.65C33.625 163.6 58.5468 163.557 89.298 163.557C120.049 163.557 144.96 163.604 144.96 163.65Z" fill="#263238"/>
<path d="M120.669 119.708C115.123 115.835 113.867 108.645 114.086 102.18C114.122 101.104 114.003 99.9621 114.517 99.0181C115.03 98.074 116.229 97.4243 117.194 97.8766C117.995 98.2535 118.343 99.1868 118.792 99.9585C119.39 100.986 120.268 101.824 121.322 102.374C122.008 102.733 122.859 102.949 123.537 102.575C124.47 102.062 124.578 100.78 124.571 99.7036C124.571 97.7007 124.559 95.7002 124.535 93.702C124.47 92.6291 124.579 91.5527 124.858 90.5145C125.192 89.4951 125.935 88.5511 126.951 88.2639C127.966 87.9768 129.233 88.569 129.463 89.6172C129.503 90.0611 129.514 90.5071 129.496 90.9525C129.524 91.4012 129.732 91.8929 130.152 92.0293C130.572 92.1657 131.01 91.8534 131.333 91.5375C132.439 90.4607 133.193 89.0572 133.893 87.6717C134.593 86.2861 135.278 84.8611 136.283 83.6802C137.288 82.4992 138.677 81.5624 140.232 81.4726C141.786 81.3829 143.405 82.3377 143.792 83.8453C144.18 85.3529 143.301 86.8927 142.357 88.1168C140.932 89.9337 139.253 91.5355 137.371 92.8728C137.003 93.0734 136.71 93.3868 136.535 93.7666C136.301 94.4845 136.98 95.2024 137.687 95.4286C138.487 95.6942 139.356 95.6116 140.199 95.7121C141.043 95.8126 141.94 96.1788 142.26 96.9684C142.698 98.0668 141.779 99.2155 140.878 99.9693C139.069 101.477 137.014 102.663 134.804 103.476C134.015 103.763 133.186 104.018 132.547 104.571C131.908 105.124 131.527 106.089 131.911 106.847C132.295 107.604 133.282 107.845 134.112 107.69C134.941 107.536 135.677 107.091 136.466 106.793C137.942 106.237 139.844 106.337 140.774 107.611C141.062 108.05 141.244 108.55 141.306 109.071C141.369 109.593 141.309 110.121 141.133 110.616C140.773 111.6 140.22 112.502 139.507 113.268C137.156 116.077 134.101 118.211 130.655 119.453C127.234 120.638 124.065 120.961 120.665 119.715" fill="#9965E2"/>
<path d="M142.213 82.3594C142.213 82.3594 142.18 82.3953 142.109 82.4599L141.789 82.7434C141.509 82.9947 141.096 83.3608 140.576 83.8454C139.1 85.2156 137.73 86.6951 136.477 88.2713C135.676 89.2656 134.847 90.3927 133.964 91.6167C133.081 92.8407 132.169 94.1616 131.265 95.5651C130.3 97.0451 129.417 98.5765 128.619 100.152C128.203 100.974 127.837 101.832 127.46 102.708L126.347 105.382C124.88 108.751 123.603 112.198 122.521 115.709C121.649 118.582 121.048 121.53 120.726 124.514C120.517 126.529 120.484 128.557 120.626 130.577C120.683 131.295 120.737 131.844 120.787 132.217C120.809 132.397 120.823 132.54 120.837 132.645V132.792C120.822 132.745 120.811 132.697 120.805 132.648C120.787 132.544 120.766 132.404 120.737 132.225C120.672 131.866 120.604 131.298 120.539 130.581C120.366 128.557 120.378 126.522 120.575 124.5C120.878 121.503 121.465 118.541 122.331 115.655C123.404 112.135 124.678 108.678 126.146 105.303L127.288 102.64C127.665 101.768 128.034 100.903 128.454 100.077C129.258 98.4964 130.148 96.9613 131.121 95.479C132.04 94.0432 132.966 92.7438 133.839 91.5305C134.711 90.3173 135.554 89.183 136.351 88.1923C137.617 86.6203 139.006 85.1511 140.504 83.7988C141.035 83.3214 141.459 82.9624 141.746 82.7219L142.08 82.4527C142.121 82.4171 142.165 82.3858 142.213 82.3594Z" fill="#263238"/>
<path d="M128.503 100.07C128.452 99.9221 128.417 99.7693 128.398 99.6141C128.341 99.3162 128.276 98.8962 128.201 98.3506C128.047 97.2738 127.889 95.7985 127.72 94.1653C127.551 92.5321 127.361 91.0532 127.203 89.9871C127.121 89.4559 127.049 89.0287 126.999 88.7308C126.959 88.5783 126.939 88.4216 126.938 88.2642C126.999 88.408 127.044 88.5586 127.07 88.7128C127.149 89.0072 127.239 89.4307 127.34 89.9656C127.544 91.0424 127.745 92.5069 127.914 94.1437C128.083 95.7806 128.226 97.2164 128.337 98.3327C128.391 98.8352 128.438 99.2624 128.474 99.6034C128.502 99.7572 128.511 99.9139 128.503 100.07Z" fill="#263238"/>
<path d="M142.313 97.4921C142.138 97.5301 141.96 97.5517 141.782 97.5567C141.423 97.589 140.913 97.6321 140.281 97.7039C139.018 97.8403 137.28 98.0915 135.374 98.4505C133.468 98.8094 131.756 99.215 130.525 99.5273C129.911 99.6853 129.416 99.8288 129.089 99.9258C128.915 99.9877 128.734 100.031 128.551 100.055C128.717 99.9716 128.89 99.9031 129.068 99.8504C129.405 99.7319 129.893 99.5668 130.503 99.3909C131.727 99.032 133.44 98.6048 135.353 98.2387C136.974 97.9288 138.609 97.7012 140.253 97.5567C140.888 97.5029 141.401 97.4813 141.76 97.4741C141.944 97.4616 142.13 97.4676 142.313 97.4921Z" fill="#263238"/>
<path d="M122.508 115.405C122.47 115.353 122.439 115.296 122.415 115.236L122.178 114.737C121.973 114.303 121.697 113.66 121.367 112.874C120.699 111.295 119.848 109.084 118.944 106.628C118.039 104.173 117.206 101.962 116.575 100.365C116.266 99.5894 116.011 98.954 115.821 98.4802L115.62 97.9669C115.592 97.9077 115.573 97.8449 115.562 97.7803C115.601 97.8322 115.632 97.8889 115.656 97.949L115.893 98.4479C116.094 98.8823 116.374 99.5248 116.704 100.311C117.372 101.89 118.222 104.101 119.127 106.557C120.031 109.012 120.864 111.223 121.496 112.82C121.805 113.596 122.059 114.231 122.246 114.705C122.329 114.909 122.397 115.064 122.451 115.218C122.479 115.277 122.498 115.34 122.508 115.405Z" fill="#263238"/>
<path d="M140.843 109.492C140.785 109.525 140.724 109.55 140.66 109.567L140.128 109.747L138.165 110.382C136.507 110.92 134.216 111.688 131.704 112.536C129.191 113.383 126.89 114.137 125.221 114.639C124.388 114.894 123.71 115.088 123.24 115.217L122.698 115.357C122.635 115.377 122.57 115.39 122.504 115.396C122.561 115.363 122.623 115.338 122.687 115.321L123.218 115.142L125.182 114.506C126.84 113.968 129.13 113.2 131.643 112.353C134.155 111.505 136.453 110.752 138.122 110.249C138.958 109.994 139.633 109.8 140.107 109.671L140.649 109.531C140.712 109.511 140.777 109.498 140.843 109.492Z" fill="#263238"/>
<path d="M133.365 22.4227L131.516 23.0832L130.723 20.6674C129.266 16.2129 124.621 13.8474 120.353 15.3514C116.085 16.8554 113.813 21.7407 115.27 26.1952L116.064 28.611L114.208 29.275C113.5 29.5495 112.926 30.0861 112.603 30.7733C112.281 31.4605 112.236 32.2455 112.478 32.965L117.621 48.6834C117.728 49.0396 117.905 49.3707 118.143 49.657C118.38 49.9434 118.672 50.1791 119.003 50.3502C119.333 50.5213 119.694 50.6243 120.065 50.653C120.435 50.6818 120.808 50.6358 121.161 50.5176L140.318 43.6653C141.035 43.3913 141.618 42.8499 141.944 42.1551C142.27 41.4602 142.313 40.6659 142.066 39.9394L136.919 24.221C136.809 23.8658 136.629 23.5363 136.389 23.2522C136.15 22.9681 135.855 22.7352 135.524 22.5673C135.192 22.3995 134.83 22.3002 134.459 22.2753C134.088 22.2505 133.716 22.3006 133.365 22.4227ZM118.763 24.9353C118.37 23.7771 118.44 22.5117 118.96 21.4043C119.479 20.2969 120.407 19.4334 121.548 18.9947C122.112 18.8018 122.709 18.7245 123.303 18.7673C123.898 18.8101 124.477 18.9722 125.007 19.2439C125.538 19.5155 126.008 19.8913 126.39 20.3486C126.772 20.806 127.058 21.3356 127.23 21.9058L128.02 24.3215L119.553 27.3511L118.763 24.9353ZM129.531 38.8841L130.845 42.8971C130.869 42.9776 130.861 43.0643 130.823 43.1391C130.785 43.214 130.72 43.2713 130.64 43.2992L128.799 43.956C128.726 43.9764 128.647 43.9675 128.581 43.9314C128.514 43.8953 128.463 43.8346 128.44 43.7622L127.116 39.7671C126.385 39.7273 125.685 39.4654 125.107 39.0163C124.53 38.5673 124.103 37.9525 123.885 37.2545C123.573 36.3316 123.63 35.3237 124.044 34.4419C124.458 33.56 125.197 32.8726 126.107 32.5235C126.556 32.3701 127.031 32.3086 127.505 32.3428C127.978 32.377 128.44 32.5061 128.862 32.7225C129.285 32.9389 129.659 33.2381 129.963 33.6023C130.268 33.9665 130.495 34.3882 130.633 34.8423C130.864 35.5514 130.883 36.3125 130.688 37.0323C130.493 37.7521 130.092 38.3994 129.535 38.8949L129.531 38.8841Z" fill="#9965E2"/>
<path d="M131.433 23.0399C131.433 23.0901 128.005 24.3787 123.741 25.9114C119.477 27.4442 115.998 28.6754 115.981 28.6395C115.963 28.6036 119.409 27.3042 123.676 25.7679C127.944 24.2316 131.415 22.9932 131.433 23.0399Z" fill="#263238"/>
<path d="M135.505 23.7007C135.52 23.7318 135.534 23.7643 135.544 23.7976C135.573 23.8694 135.605 23.9627 135.648 24.0776C135.742 24.3396 135.871 24.7022 136.032 25.1544L137.411 29.1675C137.985 30.8689 138.671 32.8862 139.432 35.126C139.79 36.2495 140.214 37.4197 140.609 38.6509C140.82 39.2854 140.912 39.9536 140.878 40.6215C140.848 40.9689 140.749 41.3068 140.587 41.6158C140.415 41.9238 140.184 42.1956 139.909 42.4163C139.354 42.8211 138.739 43.1349 138.085 43.346L136.237 44.01L132.737 45.2628L126.811 47.3734L122.809 48.7805L121.732 49.1394L121.445 49.2327C121.414 49.2464 121.381 49.2549 121.348 49.2579C121.348 49.2579 121.376 49.2579 121.437 49.2148L121.717 49.1035L122.794 48.6979L126.775 47.2334L132.69 45.0797L136.183 43.8162L138.032 43.1485C138.666 42.9461 139.264 42.6418 139.801 42.2476C140.058 42.0428 140.272 41.7905 140.433 41.5046C140.585 41.2188 140.677 40.9048 140.702 40.5821C140.735 39.9385 140.648 39.2945 140.444 38.6832C140.056 37.4628 139.647 36.2818 139.277 35.1583C138.531 32.9149 137.841 30.8904 137.296 29.189C136.75 27.4876 136.291 26.12 135.975 25.158C135.824 24.6878 135.709 24.3217 135.616 24.056L135.53 23.7689C135.519 23.7471 135.51 23.7243 135.505 23.7007Z" fill="#263238"/>
<path d="M125.396 18.7504C125.396 18.7504 125.206 18.657 124.854 18.5134C124.352 18.3208 123.822 18.214 123.285 18.1976C122.489 18.1703 121.697 18.3199 120.966 18.6355C120.077 19.0285 119.317 19.6643 118.773 20.4697C118.226 21.2729 117.932 22.222 117.93 23.1941C117.937 23.9909 118.058 24.7826 118.289 25.5453C118.475 26.1985 118.669 26.719 118.798 27.0816C118.875 27.2657 118.937 27.4553 118.985 27.6487C118.883 27.4765 118.798 27.295 118.73 27.1067C118.583 26.7477 118.371 26.238 118.163 25.5812C117.907 24.8104 117.768 24.0059 117.75 23.1941C117.741 22.1853 118.041 21.1979 118.612 20.3656C119.175 19.5308 119.966 18.8754 120.891 18.4776C121.645 18.1602 122.462 18.0202 123.278 18.0684C123.827 18.0963 124.365 18.224 124.868 18.4452C125.003 18.5073 125.132 18.5793 125.256 18.6606C125.307 18.6831 125.354 18.7133 125.396 18.7504Z" fill="#263238"/>
<path d="M125.561 32.7963C125.619 32.7616 125.679 32.7316 125.741 32.7066C125.92 32.6255 126.106 32.5595 126.297 32.5092C126.6 32.4199 126.912 32.3668 127.227 32.3512C127.655 32.3282 128.084 32.3929 128.487 32.5415C129.406 32.8645 130.249 33.8014 130.665 35.0541C130.865 35.7264 130.865 36.4422 130.665 37.1145C130.444 37.8441 130.047 38.5084 129.51 39.0492L129.531 38.9523C130.009 40.2625 130.529 41.6839 131.068 43.1664L131.1 43.2561L131.01 43.2884L130.188 43.5612L128.393 44.1606L128.304 44.1894L128.275 44.0996C127.783 42.6136 127.245 41.228 126.839 39.8676L126.918 39.9286C126.216 39.8704 125.547 39.607 124.994 39.1713C124.494 38.7858 124.083 38.2958 123.792 37.7355C123.528 37.2385 123.397 36.6823 123.411 36.1202C123.428 35.5457 123.571 34.9819 123.831 34.4694C124.091 33.9568 124.461 33.508 124.915 33.1553C125.102 33.0036 125.311 32.8825 125.536 32.7963C125.333 32.9166 125.137 33.0472 124.947 33.1876C124.449 33.6093 124.067 34.1519 123.838 34.7634C123.642 35.2245 123.55 35.7234 123.569 36.2242C123.589 36.725 123.718 37.2154 123.95 37.6601C124.236 38.1991 124.637 38.6695 125.123 39.0384C125.651 39.4526 126.289 39.7023 126.958 39.7563H127.019L127.037 39.8102C127.431 41.1455 127.973 42.5418 128.472 44.035L128.354 43.9776L130.149 43.3781L130.967 43.1017L130.91 43.2238C130.375 41.7413 129.858 40.3163 129.384 39.0061V38.9523L129.427 38.9092C129.949 38.3909 130.338 37.7543 130.561 37.0535C130.752 36.4104 130.752 35.7259 130.561 35.0828C130.17 33.8768 129.363 32.9614 128.487 32.6384C128.099 32.4889 127.685 32.4193 127.27 32.4338C126.96 32.4409 126.652 32.483 126.351 32.5594C125.816 32.6922 125.565 32.8143 125.561 32.7963Z" fill="#263238"/>
<path d="M114.463 136.438L78.6073 136.273C76.5366 136.262 74.5552 135.429 73.0981 133.958C71.641 132.486 70.8274 130.497 70.836 128.426L71.2165 38.542C71.2207 37.5162 71.4271 36.5012 71.8238 35.5551C72.2205 34.6091 72.7998 33.7505 73.5285 33.0284C74.2572 32.3064 75.1211 31.735 76.0708 31.347C77.0204 30.959 78.0373 30.762 79.0631 30.7672L114.915 30.9323C116.986 30.9428 118.967 31.7746 120.425 33.2451C121.883 34.7157 122.697 36.7047 122.69 38.7753L122.309 128.656C122.305 129.682 122.099 130.698 121.702 131.644C121.306 132.591 120.726 133.45 119.998 134.172C119.269 134.895 118.405 135.467 117.456 135.856C116.506 136.245 115.489 136.442 114.463 136.438Z" fill="#455A64"/>
<path d="M114.861 34.0225H107.912C107.685 34.0267 107.461 34.0756 107.253 34.1662C107.045 34.2569 106.857 34.3876 106.7 34.551C106.543 34.7143 106.419 34.907 106.336 35.1182C106.253 35.3293 106.213 35.5546 106.217 35.7814V37.0413C106.222 37.2679 106.181 37.493 106.098 37.704C106.015 37.9149 105.892 38.1074 105.734 38.2704C105.577 38.4335 105.389 38.5638 105.181 38.6541C104.973 38.7444 104.75 38.7928 104.523 38.7966L90.9763 38.7355C90.5181 38.7233 90.0834 38.5297 89.7677 38.1972C89.4521 37.8648 89.2813 37.4206 89.2929 36.9623V35.7024C89.3045 35.2447 89.1342 34.8011 88.8193 34.4687C88.5044 34.1364 88.0706 33.9424 87.613 33.9292H85.1685L79.0844 33.9005C77.6372 33.8919 76.2456 34.457 75.2143 35.4722C74.1829 36.4874 73.5959 37.8699 73.5817 39.317L73.2227 127.051C73.2194 127.769 73.3575 128.481 73.6292 129.145C73.9009 129.81 74.3008 130.414 74.8061 130.924C75.3114 131.434 75.9122 131.84 76.5742 132.118C77.2362 132.395 77.9465 132.54 78.6644 132.543L114.444 132.708C115.163 132.712 115.875 132.573 116.54 132.302C117.205 132.03 117.81 131.63 118.32 131.124C118.83 130.618 119.236 130.017 119.514 129.355C119.792 128.692 119.937 127.982 119.94 127.263L120.299 39.5288C120.307 38.0776 119.739 36.6824 118.72 35.6499C117.7 34.6174 116.312 34.032 114.861 34.0225Z" fill="white"/>
<path d="M110.05 121.003L83.4446 120.889C83.1682 120.889 82.9457 120.587 82.9493 120.221L82.978 113.261C82.978 112.902 83.2041 112.593 83.4805 112.593L110.086 112.715C110.239 112.742 110.376 112.826 110.468 112.951C110.561 113.077 110.601 113.232 110.581 113.387L110.556 120.339C110.556 120.709 110.326 121.007 110.05 121.003Z" fill="#9965E2"/>
<path d="M90.9483 115.667C90.9002 115.667 90.8539 115.659 90.8094 115.644C90.7656 115.627 90.7317 115.607 90.7076 115.582L90.7344 115.53C90.7573 115.552 90.7878 115.571 90.8261 115.586C90.865 115.601 90.9057 115.608 90.9483 115.608C90.9891 115.608 91.0221 115.603 91.0474 115.594C91.0733 115.583 91.0922 115.569 91.1039 115.552C91.1163 115.535 91.1224 115.515 91.1224 115.494C91.1224 115.469 91.115 115.449 91.1002 115.433C91.086 115.418 91.0672 115.406 91.0437 115.397C91.0203 115.388 90.9943 115.38 90.9659 115.373C90.9375 115.366 90.9091 115.359 90.8807 115.352C90.8523 115.344 90.8261 115.333 90.802 115.32C90.7786 115.307 90.7594 115.29 90.7446 115.269C90.7304 115.248 90.7233 115.22 90.7233 115.185C90.7233 115.153 90.7317 115.124 90.7483 115.097C90.7656 115.07 90.7918 115.048 90.827 115.032C90.8622 115.016 90.9073 115.007 90.9622 115.007C90.9987 115.007 91.0348 115.013 91.0706 115.023C91.1064 115.033 91.1372 115.047 91.1632 115.065L91.14 115.119C91.1122 115.101 91.0826 115.087 91.0511 115.079C91.0203 115.07 90.9903 115.066 90.9613 115.066C90.9224 115.066 90.8903 115.071 90.865 115.081C90.8397 115.092 90.8209 115.106 90.8085 115.124C90.7968 115.141 90.7909 115.161 90.7909 115.183C90.7909 115.209 90.798 115.229 90.8122 115.244C90.827 115.26 90.8462 115.272 90.8696 115.281C90.8937 115.289 90.9199 115.297 90.9483 115.304C90.9767 115.31 91.0048 115.318 91.0326 115.326C91.061 115.334 91.0869 115.344 91.1104 115.357C91.1345 115.37 91.1536 115.386 91.1678 115.407C91.1826 115.428 91.19 115.456 91.19 115.49C91.19 115.521 91.1814 115.551 91.1641 115.578C91.1468 115.604 91.1203 115.626 91.0845 115.643C91.0493 115.659 91.0039 115.667 90.9483 115.667ZM91.3393 115.661V115.013H91.4078V115.661H91.3393ZM91.6188 115.661V115.013H91.6752L92.1225 115.576H92.0929V115.013H92.1605V115.661H92.104L91.6576 115.098H91.6873V115.661H91.6188ZM92.6563 115.667C92.6069 115.667 92.5612 115.659 92.5193 115.643C92.4779 115.626 92.4418 115.603 92.4109 115.573C92.3807 115.544 92.3569 115.509 92.3396 115.469C92.3229 115.428 92.3146 115.385 92.3146 115.337C92.3146 115.29 92.3229 115.246 92.3396 115.206C92.3569 115.165 92.381 115.131 92.4118 115.101C92.4427 115.071 92.4788 115.048 92.5202 115.032C92.5622 115.016 92.6078 115.007 92.6572 115.007C92.7066 115.007 92.7517 115.015 92.7924 115.031C92.8338 115.046 92.869 115.069 92.898 115.101L92.8554 115.144C92.8282 115.117 92.7983 115.098 92.7656 115.086C92.7328 115.074 92.6977 115.068 92.66 115.068C92.6199 115.068 92.5828 115.075 92.5489 115.089C92.5155 115.102 92.4862 115.121 92.4609 115.145C92.4362 115.169 92.4168 115.198 92.4026 115.231C92.389 115.263 92.3822 115.298 92.3822 115.337C92.3822 115.375 92.389 115.411 92.4026 115.444C92.4168 115.476 92.4362 115.505 92.4609 115.53C92.4862 115.554 92.5155 115.573 92.5489 115.586C92.5828 115.599 92.6196 115.606 92.6591 115.606C92.6961 115.606 92.731 115.6 92.7637 115.589C92.797 115.578 92.8276 115.559 92.8554 115.532L92.8943 115.584C92.8634 115.611 92.8273 115.632 92.7859 115.646C92.7446 115.66 92.7014 115.667 92.6563 115.667ZM92.8285 115.576V115.337H92.8943V115.584L92.8285 115.576ZM93.5917 115.667C93.509 115.667 93.4438 115.643 93.3963 115.595C93.3488 115.548 93.325 115.477 93.325 115.384V115.013H93.3935V115.381C93.3935 115.458 93.4108 115.515 93.4454 115.551C93.48 115.587 93.5287 115.606 93.5917 115.606C93.6553 115.606 93.7044 115.587 93.7389 115.551C93.7735 115.515 93.7908 115.458 93.7908 115.381V115.013H93.8575V115.384C93.8575 115.477 93.8337 115.548 93.7862 115.595C93.7392 115.643 93.6744 115.667 93.5917 115.667ZM94.0639 115.661V115.013H94.3065C94.3615 115.013 94.4087 115.022 94.4482 115.04C94.4877 115.057 94.518 115.082 94.539 115.116C94.5606 115.148 94.5714 115.188 94.5714 115.235C94.5714 115.281 94.5606 115.32 94.539 115.354C94.518 115.386 94.4877 115.412 94.4482 115.43C94.4087 115.448 94.3615 115.456 94.3065 115.456H94.1019L94.1325 115.424V115.661H94.0639ZM94.1325 115.43L94.1019 115.396H94.3047C94.3695 115.396 94.4186 115.382 94.4519 115.355C94.4859 115.326 94.5029 115.286 94.5029 115.235C94.5029 115.183 94.4859 115.143 94.4519 115.115C94.4186 115.086 94.3695 115.072 94.3047 115.072H94.1019L94.1325 115.04V115.43Z" fill="#E8E8E3"/>
<path d="M88.7477 59.8139L79.5156 59.772L79.5079 61.4662L88.74 61.5081L88.7477 59.8139Z" fill="#9965E2"/>
<path opacity="0.1" d="M88.7477 59.8139L79.5156 59.772L79.5079 61.4662L88.74 61.5081L88.7477 59.8139Z" fill="black"/>
<path d="M115.815 70.2158C115.888 70.2085 115.959 70.1916 116.027 70.1656C116.126 70.1268 116.213 70.0607 116.276 69.975C116.34 69.8892 116.378 69.7874 116.386 69.681C116.386 69.1103 116.386 68.2775 116.386 67.2079C116.386 66.673 116.386 66.0736 116.386 65.4131C116.386 65.2516 116.386 65.0829 116.386 64.9142C116.409 64.7505 116.374 64.5838 116.285 64.4439C116.236 64.3769 116.172 64.3222 116.097 64.2842C116.023 64.2462 115.941 64.226 115.858 64.225H115.298H110.111L80.0888 64.1137C80.012 64.1124 79.936 64.1297 79.8672 64.164C79.7985 64.1984 79.7391 64.2489 79.694 64.3111C79.6073 64.4515 79.5742 64.6185 79.6007 64.7814C79.6007 65.1403 79.6007 65.4993 79.6007 65.8582C79.6007 66.5761 79.6007 67.294 79.6007 68.0119C79.6007 68.3708 79.6007 68.7298 79.6007 69.0887C79.5858 69.2559 79.5858 69.4241 79.6007 69.5913C79.6195 69.6629 79.6546 69.7293 79.7031 69.7853C79.7517 69.8414 79.8124 69.8855 79.8807 69.9143C79.9514 69.9425 80.0271 69.9559 80.1032 69.9538H81.9303L89.9025 69.9969L103.399 70.0794L112.498 70.1512L114.972 70.18H115.614C115.761 70.18 115.833 70.18 115.833 70.18H115.614H114.972H112.498H103.399L89.9025 70.1369L81.9303 70.1046H80.1032C80.0027 70.1086 79.9024 70.0915 79.8089 70.0543C79.7144 70.014 79.6303 69.9526 79.5631 69.8748C79.4959 69.7971 79.4474 69.705 79.4212 69.6056C79.4004 69.5114 79.3932 69.4147 79.3997 69.3185V69.0529C79.3997 68.6939 79.3997 68.335 79.3997 67.976C79.3997 67.2581 79.3997 66.5402 79.3997 65.8223C79.3997 65.4634 79.3997 65.1044 79.3997 64.7455C79.3928 64.6499 79.3928 64.5539 79.3997 64.4583C79.4131 64.3527 79.454 64.2525 79.5181 64.1676C79.58 64.0809 79.662 64.0105 79.757 63.9624C79.852 63.9143 79.9572 63.8898 80.0637 63.8912L110.086 64.0563L115.273 64.0922H115.833C115.932 64.0923 116.029 64.1161 116.116 64.1617C116.204 64.2073 116.279 64.2734 116.336 64.3542C116.437 64.5103 116.478 64.6979 116.45 64.8819C116.45 65.0506 116.45 65.2193 116.45 65.3808C116.45 66.0341 116.45 66.6335 116.45 67.1755C116.45 68.2524 116.425 69.078 116.418 69.6523C116.409 69.7627 116.369 69.8683 116.302 69.9567C116.236 70.0451 116.145 70.1126 116.041 70.1512C115.973 70.1933 115.895 70.2157 115.815 70.2158Z" fill="#E0E0E0"/>
<path d="M99.174 65.916H82.2891V67.499H99.174V65.916Z" fill="#9965E2"/>
<path opacity="0.2" d="M99.174 65.916H82.2891V67.499H99.174V65.916Z" fill="white"/>
<path d="M88.6852 75.2694L79.4531 75.2275L79.4454 76.9218L88.6775 76.9637L88.6852 75.2694Z" fill="#9965E2"/>
<path opacity="0.1" d="M88.6852 75.2694L79.4531 75.2275L79.4454 76.9218L88.6775 76.9637L88.6852 75.2694Z" fill="black"/>
<path d="M115.579 85.6719C115.651 85.663 115.723 85.6498 115.794 85.6324C115.895 85.6005 115.987 85.5475 116.065 85.4769C116.143 85.4063 116.205 85.3198 116.247 85.2232C116.303 85.0783 116.325 84.9223 116.311 84.7674C116.311 84.5951 116.311 84.4084 116.311 84.2002C116.311 83.7838 116.311 83.31 116.311 82.7644V80.4851C116.328 80.3201 116.292 80.1539 116.207 80.0113C116.119 79.865 115.979 79.7564 115.816 79.7062C115.637 79.6743 115.455 79.6646 115.274 79.6775H110.108L80.1901 79.5662C80.0292 79.5666 79.8739 79.6254 79.753 79.7317C79.6322 79.838 79.5541 79.9845 79.5332 80.1441C79.5332 80.4851 79.5332 80.862 79.5332 81.2209C79.5332 81.9388 79.5332 82.6567 79.5332 83.3746C79.5332 83.7336 79.5332 84.0925 79.5332 84.4515C79.5198 84.6193 79.5271 84.788 79.5548 84.954C79.5996 85.0996 79.6918 85.2259 79.8168 85.313C79.9494 85.3971 80.1051 85.4373 80.2619 85.4278H80.7608H81.7982L89.7417 85.4673L103.192 85.5499L112.259 85.6217L114.725 85.6504H115.367H115.582H115.367H114.725H112.259H103.192L89.7345 85.636L81.791 85.6073H80.2296C80.0354 85.6188 79.8428 85.5672 79.6804 85.4601C79.5171 85.347 79.3979 85.1809 79.343 84.9899C79.3108 84.8075 79.3012 84.6219 79.3143 84.4371C79.3143 84.0782 79.3143 83.7192 79.3143 83.3603C79.3143 82.6424 79.3143 81.9245 79.3143 81.2066C79.3143 80.8476 79.3143 80.4887 79.3143 80.1297C79.3404 79.9245 79.4405 79.7358 79.5958 79.5991C79.7511 79.4623 79.9509 79.3868 80.1578 79.3867L110.076 79.5518L115.241 79.5913C115.434 79.5795 115.627 79.5928 115.816 79.6308C116.002 79.6917 116.16 79.8196 116.257 79.9898C116.35 80.1479 116.39 80.3314 116.372 80.5138C116.372 80.6825 116.372 80.8476 116.372 81.0128C116.372 81.6625 116.372 82.2583 116.372 82.8075C116.372 83.3567 116.372 83.8197 116.372 84.2433C116.372 84.4479 116.372 84.6381 116.372 84.814C116.385 84.9746 116.359 85.1359 116.297 85.2843C116.25 85.3833 116.183 85.4711 116.099 85.5417C116.016 85.6124 115.918 85.6641 115.812 85.6935C115.734 85.6999 115.655 85.6926 115.579 85.6719Z" fill="#E0E0E0"/>
<path d="M88.6149 91.3964L79.3828 91.3545L79.3751 93.0487L88.6072 93.0906L88.6149 91.3964Z" fill="#9965E2"/>
<path opacity="0.1" d="M88.6149 91.3964L79.3828 91.3545L79.3751 93.0487L88.6072 93.0906L88.6149 91.3964Z" fill="black"/>
<path d="M115.508 101.792C115.58 101.784 115.652 101.771 115.723 101.753C115.823 101.721 115.915 101.669 115.993 101.599C116.071 101.529 116.133 101.443 116.175 101.347C116.231 101.202 116.254 101.046 116.24 100.891C116.24 100.715 116.24 100.532 116.24 100.321C116.24 99.9078 116.24 99.4304 116.24 98.8848V96.6055C116.257 96.4405 116.22 96.2743 116.136 96.1317C116.045 95.9881 115.906 95.8812 115.744 95.8302C115.566 95.797 115.384 95.7861 115.202 95.7979H110.037L80.1187 95.6866C79.9578 95.687 79.8025 95.7458 79.6817 95.8521C79.5608 95.9584 79.4827 96.1049 79.4619 96.2645C79.4619 96.6234 79.4619 96.9824 79.4619 97.3413C79.4619 98.0592 79.4619 98.7771 79.4619 99.495C79.4619 99.854 79.4619 100.213 79.4619 100.572C79.4485 100.738 79.4557 100.906 79.4834 101.071C79.5264 101.217 79.619 101.344 79.7454 101.43C79.8772 101.516 80.0336 101.556 80.1905 101.545H81.7519L89.6955 101.588L103.145 101.67L112.212 101.742L114.678 101.771H115.321C115.464 101.771 115.536 101.771 115.536 101.771C115.536 101.771 115.464 101.771 115.321 101.771H114.678H112.212H103.145L89.6955 101.731L81.7519 101.699H80.1905C79.9962 101.712 79.803 101.66 79.6413 101.552C79.478 101.439 79.3588 101.273 79.3039 101.082C79.2717 100.899 79.2621 100.714 79.2752 100.529C79.2752 100.17 79.2752 99.8109 79.2752 99.452C79.2752 98.7341 79.2752 98.0162 79.2752 97.2983C79.2752 96.9393 79.2752 96.5804 79.2752 96.2035C79.3006 95.9985 79.3999 95.8099 79.5546 95.6731C79.7093 95.5363 79.9086 95.4606 80.1151 95.4604L110.034 95.6256L115.199 95.6651C115.391 95.6533 115.584 95.6665 115.773 95.7045C115.96 95.7655 116.117 95.8934 116.215 96.0635C116.307 96.2216 116.348 96.4051 116.33 96.5875C116.33 96.7562 116.33 96.925 116.33 97.0865C116.33 97.7362 116.33 98.332 116.33 98.8812C116.33 99.4304 116.33 99.8935 116.33 100.317C116.33 100.522 116.33 100.712 116.33 100.888C116.343 101.048 116.317 101.21 116.254 101.358C116.208 101.457 116.14 101.545 116.056 101.615C115.973 101.686 115.875 101.738 115.77 101.767C115.685 101.796 115.596 101.805 115.508 101.792Z" fill="#E0E0E0"/>
<path d="M98.8145 81.8193L81.9297 81.7427L81.9225 83.3256L98.8073 83.4022L98.8145 81.8193Z" fill="#9965E2"/>
<path opacity="0.2" d="M98.8145 81.8193L81.9297 81.7427L81.9225 83.3256L98.8073 83.4022L98.8145 81.8193Z" fill="white"/>
<path d="M83.4574 98.8634C83.4468 99.0078 83.394 99.1459 83.3057 99.2605C83.2173 99.3752 83.0972 99.4614 82.9603 99.5085C82.8234 99.5556 82.6757 99.5614 82.5355 99.5253C82.3953 99.4892 82.2688 99.4128 82.1716 99.3054C82.0745 99.1981 82.011 99.0646 81.989 98.9215C81.9671 98.7784 81.9876 98.632 82.048 98.5004C82.1085 98.3689 82.2063 98.258 82.3292 98.1815C82.4521 98.105 82.5947 98.0663 82.7395 98.0701C82.9394 98.0812 83.127 98.1708 83.2613 98.3193C83.3957 98.4678 83.4662 98.6633 83.4574 98.8634Z" fill="#9965E2"/>
<path d="M85.7427 98.8744C85.7498 98.9756 85.7359 99.0772 85.7021 99.1728C85.6682 99.2684 85.615 99.356 85.5458 99.4302C85.4766 99.5044 85.3929 99.5636 85.2999 99.604C85.2069 99.6445 85.1065 99.6653 85.0051 99.6653C84.9036 99.6653 84.8033 99.6445 84.7102 99.604C84.6172 99.5636 84.5335 99.5044 84.4643 99.4302C84.3951 99.356 84.3419 99.2684 84.3081 99.1728C84.2742 99.0772 84.2604 98.9756 84.2674 98.8744C84.2604 98.7732 84.2742 98.6717 84.3081 98.576C84.3419 98.4804 84.3951 98.3928 84.4643 98.3186C84.5335 98.2444 84.6172 98.1853 84.7102 98.1448C84.8033 98.1044 84.9036 98.0835 85.0051 98.0835C85.1065 98.0835 85.2069 98.1044 85.2999 98.1448C85.3929 98.1853 85.4766 98.2444 85.5458 98.3186C85.615 98.3928 85.6682 98.4804 85.7021 98.576C85.7359 98.6717 85.7498 98.7732 85.7427 98.8744Z" fill="#9965E2"/>
<path d="M88.0355 98.8849C88.0249 99.0292 87.9721 99.1673 87.8838 99.282C87.7954 99.3967 87.6754 99.4829 87.5385 99.53C87.4015 99.5771 87.2538 99.5829 87.1136 99.5468C86.9734 99.5107 86.8469 99.4343 86.7498 99.3269C86.6526 99.2196 86.5891 99.0861 86.5672 98.943C86.5452 98.7999 86.5657 98.6535 86.6262 98.5219C86.6866 98.3904 86.7844 98.2795 86.9073 98.203C87.0302 98.1265 87.1729 98.0877 87.3176 98.0916C87.5172 98.1036 87.7042 98.1934 87.8384 98.3417C87.9726 98.49 88.0434 98.685 88.0355 98.8849Z" fill="#9965E2"/>
<path d="M90.3206 98.8956C90.31 99.04 90.2573 99.1781 90.1689 99.2928C90.0806 99.4075 89.9605 99.4937 89.8236 99.5407C89.6867 99.5878 89.539 99.5937 89.3988 99.5576C89.2586 99.5215 89.1321 99.445 89.0349 99.3377C88.9378 99.2303 88.8743 99.0968 88.8523 98.9537C88.8303 98.8106 88.8509 98.6642 88.9113 98.5327C88.9718 98.4011 89.0695 98.2902 89.1924 98.2137C89.3154 98.1372 89.458 98.0985 89.6027 98.1023C89.8024 98.1144 89.9894 98.2042 90.1236 98.3525C90.2578 98.5008 90.3285 98.6957 90.3206 98.8956Z" fill="#9965E2"/>
<path d="M92.606 98.9028C92.5961 99.0474 92.544 99.1859 92.456 99.301C92.368 99.4162 92.2481 99.503 92.1112 99.5506C91.9744 99.5982 91.8265 99.6046 91.686 99.5688C91.5456 99.5331 91.4187 99.4569 91.3212 99.3496C91.2237 99.2424 91.1599 99.1089 91.1377 98.9656C91.1154 98.8224 91.1358 98.6758 91.1962 98.5441C91.2566 98.4123 91.3544 98.3012 91.4774 98.2246C91.6004 98.148 91.7433 98.1092 91.8881 98.1131C92.0871 98.1251 92.2736 98.2144 92.4077 98.3619C92.5418 98.5094 92.613 98.7035 92.606 98.9028Z" fill="#9965E2"/>
<path d="M94.8951 98.9142C94.8853 99.0581 94.8337 99.1959 94.7466 99.3108C94.6594 99.4257 94.5406 99.5126 94.4047 99.5608C94.2689 99.609 94.1218 99.6165 93.9818 99.5822C93.8417 99.548 93.7147 99.4735 93.6164 99.368C93.5181 99.2626 93.4528 99.1306 93.4285 98.9885C93.4042 98.8464 93.422 98.7003 93.4797 98.5681C93.5374 98.436 93.6325 98.3236 93.7532 98.2448C93.874 98.1659 94.0151 98.1241 94.1593 98.1245C94.3615 98.132 94.5524 98.2193 94.6904 98.3673C94.8283 98.5154 94.9019 98.712 94.8951 98.9142Z" fill="#9965E2"/>
<path d="M97.1841 98.9242C97.1912 99.0254 97.1773 99.127 97.1435 99.2226C97.1096 99.3182 97.0564 99.4059 96.9872 99.48C96.918 99.5542 96.8343 99.6134 96.7413 99.6538C96.6483 99.6943 96.5479 99.7151 96.4465 99.7151C96.345 99.7151 96.2447 99.6943 96.1516 99.6538C96.0586 99.6134 95.9749 99.5542 95.9057 99.48C95.8365 99.4059 95.7833 99.3182 95.7495 99.2226C95.7156 99.127 95.7018 99.0254 95.7088 98.9242C95.7018 98.823 95.7156 98.7215 95.7495 98.6258C95.7833 98.5302 95.8365 98.4426 95.9057 98.3684C95.9749 98.2942 96.0586 98.2351 96.1516 98.1946C96.2447 98.1542 96.345 98.1333 96.4465 98.1333C96.5479 98.1333 96.6483 98.1542 96.7413 98.1946C96.8343 98.2351 96.918 98.2942 96.9872 98.3684C97.0564 98.4426 97.1096 98.5302 97.1435 98.6258C97.1773 98.7215 97.1912 98.823 97.1841 98.9242Z" fill="#9965E2"/>
<path d="M99.4693 98.9352C99.4595 99.079 99.4079 99.2169 99.3208 99.3318C99.2336 99.4467 99.1148 99.5336 98.9789 99.5818C98.8431 99.63 98.696 99.6375 98.556 99.6032C98.4159 99.569 98.2889 99.4945 98.1906 99.389C98.0923 99.2835 98.027 99.1516 98.0028 99.0095C97.9785 98.8674 97.9963 98.7212 98.0539 98.5891C98.1116 98.457 98.2067 98.3446 98.3274 98.2657C98.4482 98.1869 98.5893 98.1451 98.7335 98.1455C98.9357 98.153 99.1267 98.2403 99.2646 98.3883C99.4025 98.5363 99.4761 98.733 99.4693 98.9352Z" fill="#9965E2"/>
<path d="M101.754 98.9462C101.745 99.0908 101.692 99.2293 101.604 99.3445C101.516 99.4597 101.397 99.5465 101.26 99.5941C101.123 99.6417 100.975 99.648 100.834 99.6123C100.694 99.5766 100.567 99.5003 100.47 99.3931C100.372 99.2858 100.308 99.1523 100.286 99.0091C100.264 98.8659 100.284 98.7193 100.345 98.5875C100.405 98.4558 100.503 98.3447 100.626 98.268C100.749 98.1914 100.892 98.1526 101.037 98.1565C101.236 98.1686 101.422 98.2579 101.556 98.4054C101.69 98.5529 101.761 98.747 101.754 98.9462Z" fill="#9965E2"/>
<g opacity="0.2">
<path d="M83.4574 98.8639C83.4468 99.0082 83.394 99.1463 83.3057 99.261C83.2173 99.3757 83.0972 99.4619 82.9603 99.509C82.8234 99.5561 82.6757 99.5619 82.5355 99.5258C82.3953 99.4897 82.2688 99.4133 82.1716 99.3059C82.0745 99.1986 82.011 99.0651 81.989 98.922C81.9671 98.7789 81.9876 98.6325 82.048 98.5009C82.1085 98.3694 82.2063 98.2585 82.3292 98.182C82.4521 98.1055 82.5947 98.0667 82.7395 98.0706C82.9394 98.0817 83.127 98.1713 83.2613 98.3198C83.3957 98.4683 83.4662 98.6638 83.4574 98.8639Z" fill="white"/>
<path d="M85.7427 98.8744C85.7498 98.9756 85.7359 99.0772 85.7021 99.1728C85.6682 99.2684 85.615 99.356 85.5458 99.4302C85.4766 99.5044 85.3929 99.5636 85.2999 99.604C85.2069 99.6445 85.1065 99.6653 85.0051 99.6653C84.9036 99.6653 84.8033 99.6445 84.7102 99.604C84.6172 99.5636 84.5335 99.5044 84.4643 99.4302C84.3951 99.356 84.3419 99.2684 84.3081 99.1728C84.2742 99.0772 84.2604 98.9756 84.2674 98.8744C84.2604 98.7732 84.2742 98.6717 84.3081 98.576C84.3419 98.4804 84.3951 98.3928 84.4643 98.3186C84.5335 98.2444 84.6172 98.1853 84.7102 98.1448C84.8033 98.1044 84.9036 98.0835 85.0051 98.0835C85.1065 98.0835 85.2069 98.1044 85.2999 98.1448C85.3929 98.1853 85.4766 98.2444 85.5458 98.3186C85.615 98.3928 85.6682 98.4804 85.7021 98.576C85.7359 98.6717 85.7498 98.7732 85.7427 98.8744Z" fill="white"/>
<path d="M88.0355 98.8853C88.0249 99.0297 87.9721 99.1678 87.8838 99.2825C87.7954 99.3972 87.6754 99.4834 87.5385 99.5305C87.4015 99.5776 87.2538 99.5834 87.1136 99.5473C86.9734 99.5112 86.8469 99.4347 86.7498 99.3274C86.6526 99.2201 86.5891 99.0866 86.5672 98.9435C86.5452 98.8004 86.5657 98.654 86.6262 98.5224C86.6866 98.3909 86.7844 98.28 86.9073 98.2035C87.0302 98.127 87.1729 98.0882 87.3176 98.0921C87.5172 98.1041 87.7042 98.1939 87.8384 98.3422C87.9726 98.4905 88.0434 98.6855 88.0355 98.8853Z" fill="white"/>
<path d="M90.3206 98.8961C90.31 99.0405 90.2573 99.1786 90.1689 99.2933C90.0806 99.4079 89.9605 99.4942 89.8236 99.5412C89.6867 99.5883 89.539 99.5942 89.3988 99.5581C89.2586 99.5219 89.1321 99.4455 89.0349 99.3381C88.9378 99.2308 88.8743 99.0973 88.8523 98.9542C88.8303 98.8111 88.8509 98.6647 88.9113 98.5332C88.9718 98.4016 89.0695 98.2907 89.1924 98.2142C89.3154 98.1377 89.458 98.099 89.6027 98.1028C89.8024 98.1148 89.9894 98.2047 90.1236 98.3529C90.2578 98.5012 90.3285 98.6962 90.3206 98.8961Z" fill="white"/>
<path d="M92.606 98.9028C92.5961 99.0474 92.544 99.1859 92.456 99.301C92.368 99.4162 92.2481 99.503 92.1112 99.5506C91.9744 99.5982 91.8265 99.6046 91.686 99.5688C91.5456 99.5331 91.4187 99.4569 91.3212 99.3496C91.2237 99.2424 91.1599 99.1089 91.1377 98.9656C91.1154 98.8224 91.1358 98.6758 91.1962 98.5441C91.2566 98.4123 91.3544 98.3012 91.4774 98.2246C91.6004 98.148 91.7433 98.1092 91.8881 98.1131C92.0871 98.1251 92.2736 98.2144 92.4077 98.3619C92.5418 98.5094 92.613 98.7035 92.606 98.9028Z" fill="white"/>
<path d="M94.899 98.9142C94.8892 99.0581 94.8376 99.1959 94.7505 99.3108C94.6633 99.4257 94.5445 99.5126 94.4086 99.5608C94.2728 99.609 94.1257 99.6165 93.9857 99.5822C93.8456 99.548 93.7186 99.4735 93.6203 99.368C93.522 99.2626 93.4567 99.1306 93.4324 98.9885C93.4082 98.8464 93.426 98.7003 93.4836 98.5681C93.5413 98.436 93.6364 98.3236 93.7571 98.2448C93.8779 98.1659 94.019 98.1241 94.1632 98.1245C94.3654 98.132 94.5563 98.2193 94.6943 98.3673C94.8322 98.5154 94.9058 98.712 94.899 98.9142Z" fill="white"/>
<path d="M97.1841 98.9252C97.1912 99.0264 97.1773 99.128 97.1435 99.2236C97.1096 99.3192 97.0564 99.4068 96.9872 99.481C96.918 99.5552 96.8343 99.6144 96.7413 99.6548C96.6483 99.6953 96.5479 99.7161 96.4465 99.7161C96.345 99.7161 96.2447 99.6953 96.1516 99.6548C96.0586 99.6144 95.9749 99.5552 95.9057 99.481C95.8365 99.4068 95.7833 99.3192 95.7495 99.2236C95.7156 99.128 95.7018 99.0264 95.7088 98.9252C95.7018 98.824 95.7156 98.7224 95.7495 98.6268C95.7833 98.5312 95.8365 98.4436 95.9057 98.3694C95.9749 98.2952 96.0586 98.236 96.1516 98.1956C96.2447 98.1552 96.345 98.1343 96.4465 98.1343C96.5479 98.1343 96.6483 98.1552 96.7413 98.1956C96.8343 98.236 96.918 98.2952 96.9872 98.3694C97.0564 98.4436 97.1096 98.5312 97.1435 98.6268C97.1773 98.7224 97.1912 98.824 97.1841 98.9252Z" fill="white"/>
<path d="M99.4693 98.9357C99.4595 99.0795 99.4079 99.2174 99.3208 99.3323C99.2336 99.4471 99.1148 99.534 98.9789 99.5823C98.8431 99.6305 98.696 99.6379 98.556 99.6037C98.4159 99.5695 98.2889 99.495 98.1906 99.3895C98.0923 99.284 98.027 99.1521 98.0028 99.01C97.9785 98.8679 97.9963 98.7217 98.0539 98.5896C98.1116 98.4574 98.2067 98.345 98.3274 98.2662C98.4482 98.1874 98.5893 98.1456 98.7335 98.146C98.9357 98.1535 99.1267 98.2408 99.2646 98.3888C99.4025 98.5368 99.4761 98.7335 99.4693 98.9357Z" fill="white"/>
<path d="M101.758 98.9467C101.748 99.0913 101.696 99.2298 101.608 99.345C101.52 99.4602 101.4 99.5469 101.264 99.5946C101.127 99.6422 100.979 99.6485 100.838 99.6128C100.698 99.577 100.571 99.5008 100.474 99.3936C100.376 99.2863 100.312 99.1528 100.29 99.0096C100.268 98.8663 100.288 98.7197 100.349 98.588C100.409 98.4562 100.507 98.3452 100.63 98.2685C100.753 98.1919 100.896 98.1531 101.04 98.157C101.239 98.1691 101.426 98.2583 101.56 98.4059C101.694 98.5534 101.765 98.7474 101.758 98.9467Z" fill="white"/>
</g>
<path d="M98.5053 47.1285C98.7547 47.0187 98.9662 46.838 99.1137 46.6089C99.2611 46.3797 99.3379 46.1123 99.3345 45.8399C99.3438 45.6628 99.3169 45.4856 99.2555 45.3192C99.1942 45.1529 99.0996 45.0007 98.9775 44.8721C98.8554 44.7434 98.7084 44.641 98.5455 44.571C98.3825 44.5009 98.2071 44.4648 98.0297 44.4648C97.8524 44.4648 97.6769 44.5009 97.5139 44.571C97.351 44.641 97.204 44.7434 97.0819 44.8721C96.9599 45.0007 96.8652 45.1529 96.8039 45.3192C96.7425 45.4856 96.7156 45.6628 96.7249 45.8399C96.7195 46.115 96.7956 46.3857 96.9439 46.6176C97.0921 46.8495 97.3057 47.0323 97.5577 47.1429C95.5476 47.4444 95.6373 49.6268 95.6373 49.6268L100.39 49.6483C100.39 49.6483 100.501 47.4264 98.5053 47.1285Z" fill="#9965E2"/>
<path opacity="0.1" d="M98.5053 47.1285C98.7547 47.0187 98.9662 46.838 99.1137 46.6089C99.2611 46.3797 99.3379 46.1123 99.3345 45.8399C99.3438 45.6628 99.3169 45.4856 99.2555 45.3192C99.1942 45.1529 99.0996 45.0007 98.9775 44.8721C98.8554 44.7434 98.7084 44.641 98.5455 44.571C98.3825 44.5009 98.2071 44.4648 98.0297 44.4648C97.8524 44.4648 97.6769 44.5009 97.5139 44.571C97.351 44.641 97.204 44.7434 97.0819 44.8721C96.9599 45.0007 96.8652 45.1529 96.8039 45.3192C96.7425 45.4856 96.7156 45.6628 96.7249 45.8399C96.7195 46.115 96.7956 46.3857 96.9439 46.6176C97.0921 46.8495 97.3057 47.0323 97.5577 47.1429C95.5476 47.4444 95.6373 49.6268 95.6373 49.6268L100.39 49.6483C100.39 49.6483 100.501 47.4264 98.5053 47.1285Z" fill="black"/>
<path d="M106.232 51.0559L89.293 50.979L89.2838 53.0035L106.222 53.0803L106.232 51.0559Z" fill="#9965E2"/>
<path opacity="0.2" d="M106.232 51.0559L89.293 50.979L89.2838 53.0035L106.222 53.0803L106.232 51.0559Z" fill="white"/>
<path d="M43.9606 61.5479H43.7919L43.3037 61.5838C43.0395 61.5996 42.7768 61.6344 42.5176 61.6879C42.3497 61.7114 42.1832 61.7438 42.0187 61.7848L41.4623 61.9391C40.5153 62.2297 39.6218 62.6721 38.8168 63.2493C37.7532 64.0213 36.8651 65.0098 36.2109 66.1496C35.8263 66.8067 35.5203 67.5066 35.2991 68.2351C35.0667 69.0268 34.9329 69.8442 34.9007 70.6688C34.8793 71.1019 34.8865 71.536 34.9222 71.9682C34.9222 72.1871 34.9833 72.4061 35.012 72.6286C35.0361 72.853 35.0781 73.075 35.1376 73.2927C35.4604 74.7331 36.1153 76.0781 37.0501 77.2204C37.9849 78.3628 39.1738 79.2709 40.5218 79.8722C41.4975 80.2932 42.5432 80.5282 43.6052 80.565C44.7021 80.6253 45.8 80.468 46.8357 80.102L47.1516 79.9835H47.1947L47.2306 80.005L51.7569 82.3023L51.6241 82.4172C51.1395 80.9168 50.6729 79.463 50.2206 78.0667V78.0129L50.2601 77.9734C51.3581 76.8674 52.1733 75.513 52.6364 74.0249C53.0558 72.6645 53.1782 71.2299 52.9953 69.8181C52.8326 68.5634 52.4292 67.3519 51.8072 66.2501C51.271 65.3037 50.5794 64.4543 49.7612 63.7375C49.0862 63.1701 48.3391 62.6946 47.5393 62.3232C46.9341 62.0622 46.3039 61.8638 45.6584 61.7309L44.9405 61.6125L44.42 61.573L44.1041 61.5515H43.9965C44.0322 61.5475 44.0684 61.5475 44.1041 61.5515H44.4236L44.9441 61.573L45.662 61.6771C46.3155 61.8002 46.9544 61.9915 47.568 62.2478C48.3815 62.6148 49.1421 63.0892 49.8294 63.6585C50.6626 64.3721 51.3689 65.2217 51.9185 66.1711C52.5581 67.2847 52.9739 68.5126 53.1425 69.7858C53.3406 71.2194 53.2267 72.6789 52.8087 74.0644C52.3425 75.5834 51.5148 76.9667 50.3965 78.0954L50.4181 78.0021C50.8703 79.3984 51.3406 80.8522 51.8287 82.349L51.8969 82.5679L51.6923 82.4638L47.166 80.1702H47.2449L46.9219 80.2886C45.8662 80.6601 44.7479 80.8211 43.6303 80.7624C42.5455 80.7211 41.4779 80.4776 40.4823 80.0445C38.5834 79.2313 37.0035 77.8178 35.9847 76.0207C35.5159 75.1907 35.1735 74.2955 34.9689 73.3645C34.9129 73.1412 34.8709 72.9146 34.8433 72.6861C34.8145 72.4599 34.7679 72.2374 34.7571 72.0148C34.66 70.7376 34.795 69.4534 35.1555 68.2243C35.3822 67.4858 35.6968 66.7772 36.0924 66.1137C36.7622 64.9635 37.6689 63.9688 38.7522 63.1955C39.5705 62.6168 40.479 62.1778 41.4407 61.8961L42.0043 61.7525C42.1702 61.714 42.3379 61.6841 42.5068 61.6627C42.7687 61.6142 43.0339 61.5854 43.3001 61.5766L43.7919 61.5586C43.8478 61.5511 43.9041 61.5475 43.9606 61.5479Z" fill="#9965E2"/>
<path d="M46.0053 69.9183H45.3413L43.9055 67.901V66.5765C43.9055 66.5765 42.8789 66.5119 43.0009 68.2456C43.123 69.9793 43.0009 69.5378 43.0009 69.5378C43.0009 69.5378 40.8221 69.5378 40.6427 69.7352C40.4632 69.9327 40.4524 72.0361 40.4273 73.2099C40.4135 73.4928 40.4947 73.7722 40.658 74.0038C40.8212 74.2353 41.0571 74.4056 41.3282 74.4877C41.4042 74.5088 41.4827 74.5196 41.5616 74.52C42.1072 74.52 44.8818 74.0785 44.8818 74.0785H46.0269L46.0053 69.9183Z" fill="#9965E2"/>
<path d="M47.9068 69.563L47.4976 74.1001H46.3633V69.6563L47.9068 69.563Z" fill="#9965E2"/>
<path d="M61.4361 161.931V158.862L55.9334 158.822L55.8867 163.463L56.2277 163.489C57.7461 163.586 63.9523 163.729 64.9717 163.413C66.106 163.061 61.4361 161.931 61.4361 161.931Z" fill="#9965E2"/>
<path d="M65.0986 163.127C65.0986 163.177 63.0382 163.22 60.5005 163.22C57.9627 163.22 55.9023 163.177 55.9023 163.127C55.9023 163.076 57.9627 163.033 60.5005 163.033C63.0382 163.033 65.0986 163.076 65.0986 163.127Z" fill="#263238"/>
<path d="M61.5297 162.56C61.483 162.534 61.5297 162.373 61.641 162.201C61.7522 162.028 61.903 161.957 61.9389 161.992C61.9748 162.028 61.8994 162.165 61.7917 162.312C61.684 162.459 61.5764 162.585 61.5297 162.56Z" fill="#263238"/>
<path d="M61.8842 162.76C61.834 162.76 61.8591 162.559 61.9668 162.369C62.0745 162.179 62.2181 162.064 62.2576 162.093C62.297 162.121 62.2324 162.283 62.1319 162.452C62.0314 162.62 61.9309 162.778 61.8842 162.76Z" fill="#263238"/>
<path d="M57.5639 163.112C57.5423 163.112 57.4598 163.048 57.3413 162.911C57.1967 162.736 57.0357 162.575 56.8603 162.43C56.6879 162.293 56.4825 162.202 56.2645 162.168C56.0958 162.147 55.9881 162.168 55.9773 162.147C55.9666 162.125 56.0706 162.05 56.2681 162.035C56.5286 162.03 56.7828 162.116 56.986 162.279C57.1763 162.435 57.3369 162.623 57.4598 162.836C57.5423 162.994 57.5854 163.098 57.5639 163.112Z" fill="#263238"/>
<path d="M61.5511 161.981C61.5762 162.024 61.4829 162.132 61.325 162.189C61.167 162.247 61.027 162.225 61.0199 162.189C61.0127 162.154 61.124 162.078 61.2604 162.028C61.3968 161.978 61.5224 161.938 61.5511 161.981Z" fill="#263238"/>
<path d="M61.4613 161.684C61.4613 161.738 61.3177 161.781 61.1311 161.784C60.9444 161.788 60.7973 161.745 60.8008 161.694C60.8044 161.644 60.9516 161.598 61.1311 161.594C61.3106 161.59 61.4541 161.633 61.4613 161.684Z" fill="#263238"/>
<path d="M74.9829 161.931V158.862L69.4803 158.822L69.4336 163.417L69.7746 163.442C71.2929 163.539 77.5028 163.729 78.5186 163.413C79.6529 163.061 74.9829 161.931 74.9829 161.931Z" fill="#9965E2"/>
<path d="M78.6497 163.134C78.6497 163.184 76.5929 163.227 74.0516 163.227C71.5102 163.227 69.457 163.184 69.457 163.134C69.457 163.084 71.5138 163.041 74.0516 163.041C76.5894 163.041 78.6497 163.084 78.6497 163.134Z" fill="#263238"/>
<path d="M75.0789 162.56C75.0359 162.534 75.0789 162.373 75.1902 162.201C75.3015 162.028 75.4523 161.957 75.4881 161.992C75.524 162.028 75.4487 162.165 75.341 162.312C75.2333 162.459 75.1256 162.585 75.0789 162.56Z" fill="#263238"/>
<path d="M75.4333 162.76C75.3866 162.76 75.4082 162.559 75.5195 162.369C75.6307 162.179 75.7707 162.064 75.8102 162.093C75.8497 162.121 75.7815 162.283 75.681 162.452C75.5805 162.62 75.4836 162.778 75.4333 162.76Z" fill="#263238"/>
<path d="M71.1108 163.112C71.0892 163.112 71.0102 163.048 70.8882 162.911C70.7436 162.736 70.5825 162.575 70.4072 162.43C70.2348 162.293 70.0294 162.202 69.8114 162.168C69.6462 162.147 69.535 162.168 69.5242 162.147C69.5134 162.125 69.6175 162.05 69.8149 162.035C70.0755 162.03 70.3296 162.116 70.5328 162.279C70.7242 162.434 70.8849 162.622 71.0067 162.836C71.0892 162.994 71.1323 163.098 71.1108 163.112Z" fill="#263238"/>
<path d="M75.098 161.981C75.1231 162.024 75.0298 162.132 74.8718 162.189C74.7139 162.247 74.5739 162.225 74.5667 162.189C74.5596 162.154 74.6708 162.078 74.8072 162.028C74.9436 161.978 75.0693 161.938 75.098 161.981Z" fill="#263238"/>
<path d="M75.0202 161.684C75.0202 161.738 74.8766 161.781 74.69 161.784C74.5033 161.788 74.3598 161.745 74.3633 161.694C74.3669 161.644 74.5105 161.598 74.69 161.594C74.8695 161.59 75.0202 161.633 75.0202 161.684Z" fill="#263238"/>
<path d="M95.258 70.7937C95.1145 70.6465 94.7591 70.7183 94.7591 70.7183C94.7947 70.5117 94.7947 70.3004 94.7591 70.0938C94.6945 69.8927 94.2422 69.9322 94.2422 69.9322C94.2214 69.763 94.2214 69.5918 94.2422 69.4225C94.2458 69.385 94.2378 69.3473 94.2191 69.3145C94.2005 69.2818 94.1722 69.2555 94.1381 69.2395C93.9241 69.1522 93.6943 69.1106 93.4633 69.1174C93.1869 68.92 94.3068 67.3514 94.7232 66.8489C95.1396 66.3463 95.0642 65.9551 94.6945 65.9551C94.4396 65.9551 93.1331 67.4627 92.731 67.9688C92.329 68.4749 91.2629 69.882 91.227 68.7585C91.1911 67.635 90.7389 66.7878 90.4553 66.6443C90.1717 66.5007 89.8702 66.8381 90.0246 67.1504C90.1602 67.5052 90.2448 67.8774 90.2758 68.2559C90.3148 68.5575 90.3015 68.8635 90.2363 69.1605C90.1173 69.7131 89.9553 70.2556 89.7518 70.7829H89.723C89.723 70.7829 81.8908 78.2957 81.3236 78.8306C80.8175 79.3116 70.6377 78.2599 68.5953 78.0445C67.9013 77.9429 67.2004 77.8949 66.499 77.9009C65.6124 77.9404 65.4545 78.066 64.5715 78.0768C62.3415 78.1015 60.1167 78.2971 57.9166 78.6619C56.9203 78.8312 55.9898 79.271 55.2264 79.9331C54.463 80.5952 53.8961 81.4542 53.5876 82.4165C51.5309 88.8417 46.8717 104.05 46.0497 112.593C45.4286 113.72 44.8678 114.878 44.3698 116.064C43.7919 117.637 43.9319 117.69 44.1257 117.726C44.6498 117.823 45.2457 115.002 45.4682 115.684C45.6908 116.366 44.3375 119.047 44.8867 119.126C45.6046 119.227 46.1753 116.255 46.2435 116.018C46.3117 115.781 46.6671 115.856 46.6025 116.079C46.4984 116.395 45.4897 119.744 46.1933 119.851C46.5809 119.909 46.624 119.202 46.624 119.202C46.624 119.202 47.3419 115.996 47.6686 116.061C47.9952 116.125 47.647 118.017 47.4819 118.649C47.3168 119.281 47.5465 119.6 47.8839 119.446C48.1137 119.338 48.6629 117.418 48.8136 116.793C48.9644 116.168 49.3413 114.438 49.8474 115.44C50.3535 116.441 51.1217 117.023 51.4375 117.037C51.5087 117.029 51.5758 117 51.6302 116.953C51.6845 116.906 51.7237 116.844 51.7426 116.775C51.7615 116.706 51.7594 116.633 51.7363 116.565C51.7133 116.497 51.6705 116.438 51.6134 116.395C51.3417 116.129 51.1085 115.827 50.9206 115.497C50.7532 115.24 50.6317 114.956 50.5617 114.657C50.417 114.062 50.3329 113.453 50.3104 112.841L50.253 112.482C51.057 108.501 53.3723 96.8175 56.7141 89.355L58.0853 92.1763L58.6811 94.2654L55.027 103.286L70.6126 103.081L68.2866 94.129L71.1115 84.7963C74.1662 84.8645 82.0092 84.9794 83.3158 84.3871C84.9598 83.6692 93.4633 72.9295 93.4633 72.9295C94.0176 72.4987 94.5484 72.0386 95.0534 71.5511C95.0534 71.5511 95.5703 71.1168 95.258 70.7937Z" fill="#FFBE9D"/>
<path d="M54.3413 96.6203C54.7936 95.0768 57.116 87.4455 57.116 87.4455C57.116 87.4455 58.2574 93.6661 57.9559 94.4163C57.6785 95.0585 57.3509 95.6779 56.976 96.2685C54.3413 100.278 54.6859 102.284 54.6859 102.284L70.6053 101.8C70.6412 99.5744 69.3238 94.3984 69.051 93.5728C68.7782 92.7472 69.6863 90.0443 69.6863 90.0443C69.6863 90.0443 71.4811 88.2173 71.4165 87.2768C71.3824 86.432 71.2779 85.5916 71.1042 84.7642L80.7958 85.1231L80.4907 78.5543L66.5707 77.1616C66.0861 78.5292 61.7033 77.858 61.7033 77.858C56.9724 78.0159 56.678 78.8846 54.711 80.4137C52.744 81.9428 49.4883 95.066 49.4883 95.066L54.3413 96.6203Z" fill="#9965E2"/>
<path d="M63.7531 95.0663C63.4772 95.1156 63.1962 95.1301 62.9168 95.1094C62.3963 95.1094 61.682 95.0735 60.8959 94.9945C60.1098 94.9156 59.3991 94.8043 58.8929 94.7038C58.6139 94.6679 58.3402 94.5979 58.0781 94.4956C58.3588 94.4957 58.6388 94.5222 58.9145 94.5746C59.4242 94.6392 60.1313 94.7289 60.9138 94.8079C61.6963 94.8869 62.407 94.9407 62.9203 94.9766C63.2001 94.9801 63.479 95.0102 63.7531 95.0663Z" fill="#263238"/>
<path d="M64.8461 93.7124C64.5701 93.8476 64.2783 93.9477 63.9775 94.0103C62.5454 94.3866 61.0679 94.5618 59.5875 94.5308C59.2812 94.5408 58.9748 94.5118 58.6758 94.4447C58.9781 94.4065 59.2829 94.3909 59.5875 94.398C60.1511 94.38 60.9264 94.3406 61.7807 94.2401C62.635 94.1396 63.396 93.996 63.9344 93.8811C64.2334 93.8012 64.5383 93.7448 64.8461 93.7124Z" fill="#263238"/>
<path d="M70.1992 87.6753C70.1919 87.949 70.1546 88.221 70.0879 88.4865C69.9946 88.9855 69.851 89.6675 69.668 90.4141C69.4849 91.1607 69.309 91.8499 69.1511 92.3165C69.0876 92.5836 68.9936 92.8425 68.8711 93.0882C68.8911 92.8154 68.9417 92.5457 69.0219 92.2842C69.1583 91.7242 69.3126 91.0781 69.4849 90.371C69.6572 89.6639 69.8223 89.0178 69.9587 88.4578C70.0073 88.1883 70.088 87.9256 70.1992 87.6753Z" fill="#263238"/>
<path d="M54.5128 95.7054C53.6824 95.5771 52.8629 95.3864 52.0612 95.1347C51.242 94.9431 50.4382 94.6912 49.6562 94.3809C50.4863 94.5112 51.3056 94.7019 52.1079 94.9516C52.9272 95.1424 53.7311 95.3944 54.5128 95.7054Z" fill="#263238"/>
<path d="M71.276 84.6848C71.1406 84.7081 71.0022 84.7081 70.8668 84.6848C70.4919 84.6464 70.1237 84.5583 69.772 84.4228C69.1848 84.2022 68.6502 83.8611 68.2027 83.4216C67.7551 82.9821 67.4045 82.4538 67.1732 81.8707C66.9176 81.2292 66.8085 80.5388 66.8537 79.8498C66.8697 79.2815 67.0397 78.7282 67.3455 78.2489C67.5606 77.926 67.8819 77.6885 68.2536 77.5776C68.353 77.5502 68.4557 77.5369 68.5587 77.5382C68.6305 77.5382 68.6664 77.5382 68.6664 77.5382C68.6664 77.5382 68.5157 77.5382 68.2752 77.6351C67.9341 77.7611 67.6448 77.9973 67.4532 78.3063C66.965 79.0745 66.8286 80.478 67.3491 81.7881C67.5913 82.4059 67.9706 82.9606 68.4582 83.4106C68.8578 83.7788 69.3181 84.0751 69.8187 84.2864C70.2884 84.4721 70.7771 84.6057 71.276 84.6848Z" fill="#263238"/>
<path d="M79.642 84.9943C79.5522 83.8936 79.5234 82.7887 79.5559 81.6848C79.5277 80.5818 79.5613 79.4781 79.6564 78.3789C79.7462 79.4784 79.775 80.5821 79.7425 81.6848C79.7727 82.789 79.7391 83.894 79.642 84.9943Z" fill="#263238"/>
<path d="M66.4769 77.5637C66.5164 76.7633 66.599 75.8587 66.599 75.8587C66.599 75.8587 68.5804 75.6398 68.6988 73.5938C68.8173 71.5477 68.6988 66.8276 68.6988 66.8276L65.1093 64.9897L61.125 68.1234L61.7388 78.3534L65.3929 78.5867C65.6722 78.5945 65.9432 78.4911 66.1464 78.2993C66.3496 78.1076 66.4685 77.843 66.4769 77.5637Z" fill="#FFBE9D"/>
<path d="M66.8335 71.9748C66.8335 71.9748 66.8335 72.0143 66.8012 72.0609C66.7745 72.0948 66.7399 72.1216 66.7005 72.1391C66.6611 72.1567 66.618 72.1643 66.575 72.1615C66.3453 72.1615 66.1227 71.8958 66.0438 71.5871C66.0062 71.4375 66.0062 71.2809 66.0438 71.1313C66.0511 71.066 66.0747 71.0035 66.1123 70.9496C66.1499 70.8957 66.2004 70.852 66.2591 70.8226C66.3074 70.8026 66.3616 70.8026 66.4099 70.8226C66.4457 70.8403 66.4747 70.8693 66.4925 70.9051C66.5176 70.9662 66.4925 71.0056 66.4925 71.002C66.4925 70.9985 66.4925 70.9662 66.4566 70.9303C66.4378 70.9046 66.4102 70.8867 66.3791 70.88C66.3479 70.8734 66.3155 70.8785 66.2879 70.8944C66.2438 70.921 66.2072 70.9583 66.1815 71.0029C66.1558 71.0474 66.1417 71.0978 66.1407 71.1492C66.1105 71.2827 66.1105 71.4213 66.1407 71.5548C66.2125 71.8348 66.4063 72.0609 66.5786 72.0825C66.6123 72.0871 66.6466 72.0846 66.6793 72.0754C66.7121 72.0661 66.7425 72.0502 66.7688 72.0286C66.8119 71.9999 66.8263 71.9712 66.8335 71.9748Z" fill="#EB996E"/>
<path d="M69.9288 65.7219C69.6524 64.7814 68.6509 64.3148 67.7392 64.0564C66.3501 63.6615 64.8497 63.4892 63.4928 63.9882C62.136 64.4871 60.5064 65.3629 60.5064 66.8597C59.7059 66.7951 59.2465 67.4951 58.9306 68.3637C58.7286 68.893 58.6076 69.4496 58.5716 70.0149C58.4711 71.9748 57.9219 74.6813 56.6513 76.117C55.9334 76.9175 54.9391 77.4703 54.5299 78.4682C54.1709 79.3332 54.3576 80.3598 54.0237 81.2357C53.7258 82.0074 53.0689 82.5566 52.588 83.2278C52.0979 83.9893 51.8095 84.8628 51.7499 85.7664C51.6902 86.6699 51.8613 87.5738 52.2469 88.3931C52.6354 89.1914 53.1823 89.9022 53.8543 90.4823C54.5264 91.0624 55.3095 91.4996 56.1559 91.7672C57.8326 92.2773 59.6205 92.2948 61.3068 91.8175C62.5724 91.5149 63.753 90.9295 64.7599 90.1053C65.7902 89.2639 66.4979 88.0921 66.7628 86.7886C67.0177 85.3241 66.6085 83.8345 66.3034 82.3771C65.3486 77.7718 65.6214 77.5313 66.8275 73.2562C66.8562 73.1808 66.8705 73.1019 66.8921 73.0265C66.9136 72.9511 66.9244 72.9152 66.9387 72.8578C66.973 72.6888 66.991 72.5169 66.9926 72.3445C66.8164 72.41 66.6252 72.4239 66.4415 72.3844C66.2577 72.345 66.089 72.2539 65.9552 72.1219C65.8211 71.9812 65.7276 71.8068 65.6846 71.6172C65.6417 71.4276 65.6508 71.2299 65.7111 71.0451C65.7958 70.843 65.922 70.6609 66.0815 70.5106C66.2411 70.3604 66.4304 70.2453 66.6372 70.1729C67.0356 70.0077 67.4628 69.9216 67.8541 69.7385C68.6832 69.3437 69.2575 68.5253 69.6488 67.6674C69.9705 67.0728 70.0697 66.383 69.9288 65.7219Z" fill="#263238"/>
<path d="M66.9782 72.0718C67.0541 72.1838 67.1167 72.3043 67.1649 72.4307C67.2726 72.6569 67.4162 72.9763 67.5741 73.3461L67.6028 73.4143H67.5274L67.1685 73.4466C66.9208 73.4466 66.7126 73.4932 66.4685 73.4896C66.4473 73.4848 66.4276 73.4748 66.4113 73.4603C66.3949 73.4459 66.3825 73.4276 66.3752 73.4071C66.3645 73.3744 66.3645 73.3392 66.3752 73.3066C66.3835 73.2582 66.3943 73.2103 66.4075 73.163L66.4721 72.9081C66.5046 72.7381 66.5551 72.5721 66.6229 72.4128C66.6162 72.5861 66.5909 72.7582 66.5475 72.9261L66.4972 73.1809C66.4793 73.2671 66.447 73.3999 66.4972 73.3891C66.6767 73.3891 66.9316 73.3496 67.1685 73.3353L67.5274 73.303L67.4808 73.3819C67.3264 73.023 67.1972 72.6856 67.1218 72.4523C67.0557 72.3331 67.0073 72.2049 66.9782 72.0718Z" fill="#9965E2"/>
<path d="M54.6863 102.284L70.6057 101.8L77.5334 128.843L76.2592 159.863H67.8418L68.872 129.503L62.716 110.677L63.6636 161.066L55.1565 161.192L54.2628 113.828C54.2233 112.511 53.7925 109.542 53.9541 108.236L54.6863 102.284Z" fill="#263238"/>
<path d="M64.8349 111.061C64.5744 111.078 64.3128 111.062 64.056 111.015C63.575 110.957 62.9181 110.857 62.1967 110.713C61.4752 110.569 60.8291 110.404 60.3624 110.271C60.113 110.217 59.8717 110.13 59.6445 110.013C59.6445 109.959 60.8147 110.239 62.2505 110.53C63.6863 110.821 64.8421 111.007 64.8349 111.061Z" fill="#455A64"/>
<path d="M76.1741 158.162C76.1741 158.212 74.2681 158.256 71.917 158.256C69.5659 158.256 67.6562 158.212 67.6562 158.162C67.6562 158.112 69.5623 158.069 71.917 158.069C74.2717 158.069 76.1741 158.108 76.1741 158.162Z" fill="#455A64"/>
<path d="M63.5869 159.755C63.5869 159.809 61.7347 159.849 59.4518 159.849C57.1689 159.849 55.3203 159.809 55.3203 159.755C55.3203 159.702 57.1725 159.662 59.4518 159.662C61.7311 159.662 63.5869 159.705 63.5869 159.755Z" fill="#455A64"/>
<path d="M62.4885 159.626C62.4382 159.626 62.2157 148.617 61.9896 135.038C61.7634 121.459 61.6306 110.443 61.6773 110.443C61.7239 110.443 61.9537 121.448 62.1762 135.034C62.3988 148.621 62.5423 159.626 62.4885 159.626Z" fill="#455A64"/>
<path d="M75.0404 158.162C75.0364 158.113 75.0364 158.064 75.0404 158.015V157.584C75.0404 157.197 75.0691 156.64 75.0906 155.933C75.1409 154.497 75.2127 152.412 75.3024 149.856C75.4962 144.716 75.769 137.63 76.067 129.809C76.067 129.733 76.067 129.662 76.067 129.597V129.622C74.1825 122.084 72.4775 115.243 71.2391 110.293L69.8033 104.438C69.6382 103.753 69.5126 103.218 69.4228 102.845C69.3797 102.669 69.351 102.532 69.3259 102.428C69.3119 102.382 69.3035 102.333 69.3008 102.285C69.3194 102.33 69.3338 102.377 69.3439 102.425C69.3726 102.525 69.4085 102.662 69.4587 102.834C69.5556 103.193 69.6956 103.738 69.8751 104.42C70.234 105.806 70.7402 107.802 71.3719 110.261C72.6211 115.207 74.344 122.03 76.2536 129.579V129.604C76.2536 129.669 76.2536 129.744 76.2536 129.816C75.9342 137.638 75.6434 144.72 75.4316 149.86C75.3203 152.419 75.227 154.49 75.1624 155.933C75.1265 156.651 75.0978 157.197 75.0799 157.584C75.0799 157.767 75.0583 157.911 75.0547 158.015C75.0553 158.065 75.0504 158.114 75.0404 158.162Z" fill="#455A64"/>
<path d="M72.2955 128.965C71.6909 129.164 71.068 129.302 70.4361 129.378C69.6608 129.511 69.0003 129.604 68.7024 129.619V129.547C68.7993 129.576 68.8496 129.593 68.8496 129.608C68.8496 129.622 68.7885 129.608 68.688 129.608H68.4727L68.688 129.543C68.968 129.461 69.6285 129.324 70.4038 129.184C71.0256 129.049 71.6593 128.976 72.2955 128.965Z" fill="#455A64"/>
<path d="M72.1501 129.996C71.5902 130.021 71.0291 129.996 70.4738 129.92C69.9131 129.909 69.3545 129.848 68.8047 129.737C69.9265 129.646 71.0557 129.733 72.1501 129.996Z" fill="#455A64"/>
<path opacity="0.2" d="M54.6172 102.855C54.8057 103.097 55.0432 103.297 55.3141 103.441C55.585 103.585 55.8833 103.67 56.1894 103.691C56.8305 103.767 57.4791 103.755 58.1169 103.656C62.2269 103.2 66.581 102.78 70.6048 101.8C65.3964 102.091 59.8937 101.994 54.6854 102.284L54.6315 102.729" fill="black"/>
<g opacity="0.2">
<path d="M59.9805 110.195L62.9167 121.588L62.7121 110.676L59.9805 110.195Z" fill="black"/>
</g>
<circle opacity="0.1" cx="136.874" cy="142.184" r="13.3979" fill="#9965E2"/>
<circle opacity="0.1" cx="25.126" cy="91.4556" r="5.74319" fill="#9965E2"/>
</svg>
